<svg
  xmlns="http://www.w3.org/2000/svg"
  aria-hidden="true"
  style="position: absolute; width: 0; height: 0; overflow: hidden"
>
  <defs>
    <symbol id="icon-antenna" viewBox="0 0 64 64">
      <path
        d="M14 52h36M22 44h20M32 36 18 16M32 36l14-20M32 36v8"
        fill="none"
        stroke="currentColor"
        stroke-width="3"
        stroke-linecap="round"
        stroke-linejoin="round"
      />
      <path d="M17 14a6 6 0 0 1 8 8M39 22a6 6 0 0 1 8-8M28 30h8v8h-8z" />
    </symbol>
    <symbol id="icon-clock" viewBox="0 0 64 64">
      <path
        d="M32 56a24 24 0 1 0 0-48 24 24 0 0 0 0 48Z"
        fill="none"
        stroke="currentColor"
        stroke-width="3"
      />
      <path
        d="M32 18v16l11 7"
        fill="none"
        stroke="currentColor"
        stroke-width="3"
        stroke-linecap="round"
        stroke-linejoin="round"
      />
    </symbol>
    <symbol id="icon-diagram" viewBox="0 0 64 64">
      <path d="M10 48h44v6H10zM16 36h8v12h-8zM28 28h8v20h-8zM40 18h8v30h-8z" />
      <path
        d="m16 24 10 7 10-12 12-5"
        fill="none"
        stroke="currentColor"
        stroke-width="3"
        stroke-linecap="round"
        stroke-linejoin="round"
      />
    </symbol>
    <symbol id="icon-astronaut" viewBox="0 0 64 64">
      <path
        d="M32 36a14 14 0 1 0 0-28 14 14 0 0 0 0 28Z"
        fill="none"
        stroke="currentColor"
        stroke-width="3"
      />
      <path
        d="M20 56v-8a12 12 0 0 1 24 0v8M24 24h16M26 44h12"
        fill="none"
        stroke="currentColor"
        stroke-width="3"
        stroke-linecap="round"
      />
      <path d="M48 12h4v4h-4zM52 22h5v5h-5z" />
    </symbol>
    <symbol id="icon-instagram" viewBox="0 0 24 24">
      <path
        d="M7 2h10a5 5 0 0 1 5 5v10a5 5 0 0 1-5 5H7a5 5 0 0 1-5-5V7a5 5 0 0 1 5-5Zm5 6a4 4 0 1 0 0 8 4 4 0 0 0 0-8Zm5.5-.75a1.25 1.25 0 1 0 0-2.5 1.25 1.25 0 0 0 0 2.5Z"
      />
    </symbol>
    <symbol id="icon-twitter" viewBox="0 0 24 24">
      <path
        d="M3 3h4.7l4.2 6 5.2-6H21l-7.2 8.3L22 21h-4.7l-5-7.1L6.2 21H2.3l8.1-9.4L3 3Zm4 2 11.4 14h1.5L8.5 5H7Z"
      />
    </symbol>
    <symbol id="icon-facebook" viewBox="0 0 24 24">
      <path
        d="M14 8h3V4h-3c-3.3 0-5 2-5 5v3H6v4h3v8h4v-8h3.4l.6-4h-4V9c0-.7.3-1 1-1Z"
      />
    </symbol>
    <symbol id="icon-linkedin" viewBox="0 0 24 24">
      <path
        d="M4 8h4v14H4V8Zm2-6a2.3 2.3 0 1 1 0 4.6A2.3 2.3 0 0 1 6 2Zm5 6h3.8v1.9h.1c.5-1 1.8-2.1 3.8-2.1 4 0 4.8 2.6 4.8 6V22h-4v-7.2c0-1.7 0-3.9-2.4-3.9s-2.8 1.9-2.8 3.8V22h-4V8Z"
      />
    </symbol>
    <symbol id="icon-person" viewBox="0 0 24 24">
      <path d="M12 12a5 5 0 1 0 0-10 5 5 0 0 0 0 10Zm-9 9a9 9 0 0 1 18 0H3Z" />
    </symbol>
    <symbol id="icon-phone" viewBox="0 0 24 24">
      <path
        d="M6.6 2h4l2 5-2.5 1.7a12.8 12.8 0 0 0 5.2 5.2L17 11.4l5 2v4c0 2.2-1.8 4-4 4A16 16 0 0 1 2.6 6c0-2.2 1.8-4 4-4Z"
      />
    </symbol>
    <symbol id="icon-email" viewBox="0 0 24 24">
      <path d="M3 5h18v14H3V5Zm9 8 8-6H4l8 6Zm0 2.5L5 10v7h14v-7l-7 5.5Z" />
    </symbol>
    <symbol id="icon-close" viewBox="0 0 24 24">
      <path d="m6.4 5 12.6 12.6-1.4 1.4L5 6.4 6.4 5Z" />
      <path d="M19 6.4 6.4 19 5 17.6 17.6 5 19 6.4Z" />
    </symbol>
    <symbol id="icon-check" viewBox="0 0 16 16">
      <path d="m6.4 10.6 6-7 1.6 1.3-7.4 8.7L2 9l1.4-1.4 3 3Z" />
    </symbol>
    <symbol id="icon-send" viewBox="0 0 24 24">
      <path d="M2 11 21 3l-8 19-2-8-9-3Zm6.2.2 4 1.2 1.2 4 3.8-9-9 3.8Z" />
    </symbol>
  </defs>
</svg>
